<?xml version="1.0" encoding="utf-8"?>
<!-- Generator: Adobe Illustrator 25.3.0, SVG Export Plug-In . SVG Version: 6.00 Build 0)  -->
<svg version="1.1" id="Capa_1" xmlns="http://www.w3.org/2000/svg" xmlns:xlink="http://www.w3.org/1999/xlink" x="0px" y="0px"
	 viewBox="0 0 489 343.4" style="enable-background:new 0 0 489 343.4;" xml:space="preserve">
<style type="text/css">
	.st0{fill:none;stroke:#4A5B63;stroke-width:10;stroke-miterlimit:10;}
	.st1{fill:none;stroke:#81D9FF;stroke-width:16;stroke-miterlimit:10;}
	.st2{fill:#4A5B63;}
	.st3{fill:#81D9FF;}
	.st4{fill:none;stroke:#4A5B63;stroke-width:6;stroke-linecap:round;stroke-miterlimit:10;}
	.st5{fill:none;stroke:#4A5B63;stroke-width:10;stroke-linecap:round;stroke-miterlimit:10;stroke-dasharray:220,70,280,13,0,0;}
</style>
<circle class="st0" cx="316.9" cy="171.4" r="166.2"/>
<circle class="st1" cx="316.9" cy="171.4" r="150"/>
<g>
	<path class="st2" d="M355.2,208.3c-1.2,0-2.3-0.4-3.3-1.2L312,174.5v-61.8c0-2.9,2.3-5.2,5.2-5.2c2.9,0,5.2,2.3,5.2,5.2v56.8
		l36,29.4c2.2,1.8,2.6,5.1,0.7,7.4C358.2,207.6,356.7,208.3,355.2,208.3z"/>
</g>
<g>
	<path class="st2" d="M223.2,177.3h-16.4c-2.9,0-5.2-2.3-5.2-5.2c0-2.9,2.3-5.2,5.2-5.2h16.4c2.9,0,5.2,2.3,5.2,5.2
		C228.4,174.9,226.1,177.3,223.2,177.3z"/>
</g>
<g>
	<path class="st2" d="M317.2,287.7c-2.9,0-5.2-2.3-5.2-5.2v-16.4c0-2.9,2.3-5.2,5.2-5.2c2.9,0,5.2,2.3,5.2,5.2v16.4
		C322.5,285.4,320.1,287.7,317.2,287.7z"/>
</g>
<g>
	<path class="st2" d="M427.7,177.3h-16.4c-2.9,0-5.2-2.3-5.2-5.2c0-2.9,2.3-5.2,5.2-5.2h16.4c2.9,0,5.2,2.3,5.2,5.2
		C432.9,174.9,430.6,177.3,427.7,177.3z"/>
</g>
<g>
	<path class="st2" d="M317.4,83.2c-2.9,0-5.2-2.3-5.2-5.2V61.6c0-2.9,2.3-5.2,5.2-5.2c2.9,0,5.2,2.3,5.2,5.2V78
		C322.6,80.9,320.3,83.2,317.4,83.2z"/>
</g>
<g>
	<circle class="st2" cx="317.2" cy="172" r="12.7"/>
</g>
<circle class="st3" cx="289.2" cy="64.4" r="4.5"/>
<circle class="st2" cx="262.3" cy="75.4" r="4.5"/>
<circle class="st3" cx="239.1" cy="92.9" r="4.5"/>
<circle class="st2" cx="221.3" cy="115.8" r="4.5"/>
<circle class="st3" cx="210" cy="142.5" r="4.5"/>
<circle class="st3" cx="209.6" cy="200.1" r="4.5"/>
<circle class="st2" cx="220.6" cy="227" r="4.5"/>
<circle class="st3" cx="238.1" cy="250.2" r="4.5"/>
<circle class="st2" cx="261" cy="268" r="4.5"/>
<circle class="st3" cx="287.7" cy="279.3" r="4.5"/>
<circle class="st3" cx="345.3" cy="279.7" r="4.5"/>
<circle class="st2" cx="372.2" cy="268.7" r="4.5"/>
<circle class="st3" cx="395.4" cy="251.2" r="4.5"/>
<circle class="st2" cx="413.2" cy="228.3" r="4.5"/>
<circle class="st3" cx="424.5" cy="201.6" r="4.5"/>
<circle class="st3" cx="424.9" cy="144" r="4.5"/>
<circle class="st2" cx="413.9" cy="117.1" r="4.5"/>
<circle class="st3" cx="396.4" cy="93.9" r="4.5"/>
<circle class="st2" cx="373.5" cy="76.1" r="4.5"/>
<circle class="st3" cx="346.7" cy="64.8" r="4.5"/>
<line class="st4" x1="310.5" y1="4.6" x2="189.6" y2="4.6"/>
<line class="st4" x1="173.2" y1="87.5" x2="82.1" y2="88.2"/>
<line class="st4" x1="168.7" y1="254.3" x2="77.6" y2="254.3"/>
<line class="st4" x1="152.3" y1="171.1" x2="3" y2="171.1"/>
<line class="st4" x1="335.9" y1="337.5" x2="185.1" y2="337.5"/>
<circle class="st5" cx="316.9" cy="171.4" r="129.7"/>
</svg>
